<?xml version="1.0" standalone="no"?>
<!DOCTYPE svg PUBLIC "-//W3C//DTD SVG 20010904//EN"
 "http://www.w3.org/TR/2001/REC-SVG-20010904/DTD/svg10.dtd">
<svg version="1.0" xmlns="http://www.w3.org/2000/svg"
 width="2048.000000pt" height="2048.000000pt" viewBox="0 0 2048.000000 2048.000000"
 preserveAspectRatio="xMidYMid meet">
<metadata>
Created by potrace 1.14, written by Peter Selinger 2001-2017
</metadata>
<g transform="translate(0.000000,2048.000000) scale(0.100000,-0.100000)"
fill="#000000" stroke="none">
<path d="M2377 20474 c-1 -1 -37 -4 -79 -8 -43 -4 -83 -8 -90 -11 -7 -2 -31
-6 -53 -9 -33 -4 -128 -22 -215 -41 -8 -2 -53 -15 -100 -29 -499 -146 -928
-432 -1266 -843 -161 -196 -277 -392 -394 -668 -33 -79 -101 -295 -115 -370
-25 -127 -47 -260 -53 -315 -10 -90 -9 -13869 1 -13950 18 -150 19 -153 52
-282 68 -267 172 -489 329 -703 28 -38 54 -74 58 -80 4 -5 33 -39 65 -74 32
-35 69 -77 83 -93 28 -34 221 -206 290 -258 25 -19 47 -37 50 -40 3 -4 28 -22
55 -40 28 -19 52 -37 53 -42 2 -4 8 -8 13 -8 5 0 30 -15 56 -34 27 -18 63 -42
82 -52 18 -11 41 -23 50 -29 163 -101 499 -270 671 -339 52 -21 109 -44 125
-51 111 -50 467 -172 630 -216 61 -17 134 -37 163 -45 95 -26 166 -45 277 -75
61 -16 182 -49 270 -74 88 -25 171 -48 185 -51 14 -3 113 -29 220 -59 107 -29
305 -83 440 -120 135 -36 268 -72 295 -80 28 -8 84 -24 125 -35 41 -11 91 -25
110 -30 98 -28 257 -71 275 -75 11 -2 103 -27 205 -55 287 -79 729 -200 885
-241 44 -12 88 -25 97 -30 10 -5 24 -9 33 -9 8 0 63 -14 122 -31 60 -16 116
-32 126 -34 10 -2 27 -7 37 -10 10 -3 27 -8 37 -10 10 -2 92 -25 183 -50 91
-25 172 -48 180 -50 45 -12 316 -85 395 -107 39 -11 94 -26 123 -34 28 -8 78
-21 110 -30 31 -8 64 -17 72 -19 8 -2 15 -4 15 -5 0 -1 7 -3 15 -5 8 -2 51
-13 95 -25 44 -12 87 -23 95 -25 8 -2 15 -4 15 -5 0 -1 7 -3 15 -5 16 -3 126
-32 223 -59 106 -30 172 -47 182 -49 6 -2 16 -6 23 -10 6 -5 12 -6 12 -4 0 2
46 -9 103 -25 56 -15 109 -30 117 -32 16 -4 126 -34 150 -41 26 -7 204 -55
220 -59 59 -15 220 -59 240 -66 14 -5 37 -11 52 -14 14 -2 36 -9 47 -16 12 -6
21 -9 21 -6 0 2 24 -2 53 -10 173 -49 234 -65 250 -69 16 -4 17 441 15 9278
-2 7417 -6 9282 -15 9283 -7 1 -14 2 -15 4 -2 1 -10 3 -18 5 -8 1 -42 10 -75
19 -33 9 -68 19 -78 21 -10 2 -27 7 -37 10 -10 3 -27 8 -37 10 -10 2 -76 20
-148 39 -71 20 -166 45 -210 57 -44 12 -119 32 -166 46 -47 13 -96 26 -108 28
-45 10 -57 14 -81 23 -14 5 -27 10 -30 10 -11 1 -71 16 -170 43 -58 16 -114
31 -125 34 -11 2 -54 14 -95 25 -41 12 -106 30 -145 40 -38 11 -162 44 -275
75 -113 31 -212 57 -220 59 -66 17 -150 39 -175 47 -16 5 -131 36 -255 69
-124 33 -254 69 -290 79 -115 34 -295 83 -310 85 -8 1 -42 11 -75 20 -33 10
-68 20 -77 22 -27 6 -42 10 -203 54 -82 23 -157 43 -165 45 -65 17 -255 69
-295 81 -27 9 -90 26 -140 39 -49 13 -124 33 -165 45 -41 11 -82 22 -90 24
-37 9 -108 28 -135 37 -55 16 -178 51 -198 55 -11 2 -43 10 -71 18 -28 8 -76
22 -106 30 -30 8 -237 65 -460 126 -223 62 -427 118 -455 125 -174 47 -284 77
-310 86 -24 8 -351 98 -417 115 -10 2 -26 6 -35 9 -10 2 -141 38 -291 79 -252
70 -279 75 -362 74 -50 -1 -91 -3 -93 -4z"/>
<path d="M17855 20464 c-27 -8 -57 -17 -65 -19 -8 -2 -73 -20 -145 -40 -71
-20 -137 -38 -145 -40 -8 -2 -49 -13 -90 -25 -41 -12 -84 -24 -95 -27 -11 -3
-110 -30 -220 -60 -181 -50 -274 -75 -330 -88 -11 -3 -49 -14 -85 -24 -55 -17
-302 -85 -350 -96 -8 -2 -113 -31 -233 -64 -120 -34 -228 -63 -240 -65 -12 -2
-34 -9 -50 -15 -15 -6 -38 -13 -50 -15 -20 -4 -260 -69 -602 -162 -71 -20
-138 -38 -148 -40 -11 -2 -49 -12 -86 -23 -81 -24 -153 -44 -166 -46 -5 -2
-46 -12 -89 -25 -43 -12 -90 -24 -103 -26 -13 -3 -43 -11 -66 -19 -23 -8 -53
-16 -67 -19 -14 -3 -81 -21 -150 -39 -211 -59 -606 -166 -780 -213 -91 -24
-178 -48 -195 -53 -16 -5 -50 -15 -75 -21 -44 -12 -57 -15 -101 -25 -12 -2
-36 -9 -53 -14 -17 -6 -56 -17 -86 -25 -144 -37 -438 -117 -465 -125 -16 -6
-77 -22 -135 -36 -58 -15 -125 -32 -150 -40 -67 -20 -203 -57 -222 -60 -9 -2
-51 -13 -93 -25 -42 -12 -84 -23 -93 -25 -9 -2 -57 -14 -107 -28 -49 -14 -173
-48 -275 -75 -102 -27 -273 -73 -380 -102 l-195 -53 3 -9285 c2 -8748 3 -9284
19 -9278 9 4 69 20 133 37 63 16 122 32 130 34 8 2 76 20 150 40 74 20 142 38
150 41 8 2 49 13 90 25 41 11 83 22 93 24 9 2 65 17 125 34 92 26 241 66 427
116 28 7 77 21 110 30 33 9 67 18 75 20 8 2 110 29 225 60 116 31 302 81 415
111 113 30 219 59 236 65 17 5 41 12 53 14 32 7 49 12 131 34 41 12 126 35
189 52 63 16 119 33 124 36 6 3 20 7 33 9 12 1 89 21 170 44 82 23 155 43 164
45 18 4 513 139 585 160 28 8 124 35 215 59 91 25 246 67 345 94 99 27 194 53
210 57 17 5 35 9 40 11 6 2 51 14 100 28 105 29 90 25 320 88 99 27 203 56
230 63 90 26 310 87 325 90 8 2 15 4 15 5 0 1 7 3 15 5 23 4 205 54 295 80 44
12 141 39 215 60 74 20 241 66 370 102 195 54 345 95 430 118 340 90 712 218
932 319 31 14 62 26 67 26 6 0 11 5 11 10 0 6 8 10 18 10 9 0 26 7 36 15 10 8
23 12 27 9 5 -3 9 0 9 5 0 6 6 11 13 11 6 0 59 27 116 60 57 33 108 60 113 60
4 0 8 5 8 10 0 6 5 10 12 10 7 0 82 47 168 104 477 320 797 699 980 1161 29
74 85 266 95 325 3 19 10 60 15 90 5 30 13 82 17 115 4 33 8 3178 8 6990 0
7151 1 6967 -36 7145 -71 346 -138 532 -297 820 -120 219 -354 503 -548 666
-33 27 -61 51 -64 54 -49 51 -440 303 -440 283 0 -3 -8 1 -17 9 -24 21 -179
89 -278 123 -44 15 -89 31 -100 35 -63 25 -300 78 -422 95 -23 3 -57 8 -75 10
-94 13 -295 12 -343 -1z"/>
</g>
</svg>
